<svg id="Layer_2" data-name="Layer 2" xmlns="http://www.w3.org/2000/svg" viewBox="0 0 841.89 595.28"><defs><style>.cls-1{fill:none;}.cls-1,.cls-2,.cls-3{stroke:#231f20;stroke-linecap:round;stroke-linejoin:round;stroke-width:5px;}.cls-2{fill:#a7a9ac;}.cls-3{fill:#bcbec0;}.cls-4{fill:#231f20;}</style></defs><title>Artboard 2</title><path class="cls-1" d="M502.59,358.21a135,135,0,0,1-30.85,34.64l0,0a138.66,138.66,0,0,1-11.49,8.22,178.86,178.86,0,0,0,6.31-32.59h0c2.15-22.14.27-50.29-18.06-68-19.15-18.48-53.18-22.59-64.85-24a173.39,173.39,0,0,0-23.06-1.11c-11.72.08-20.45.39-31.58-5-16.8-8.17-26.51-23.3-32.17-35.23a68.79,68.79,0,0,0,22.67,18.18,49.38,49.38,0,0,0,7-20.56,59.55,59.55,0,0,0,10.64-4.26c21.25-11,24.16-28.7,46.47-43.92a86.27,86.27,0,0,1,15.2-8.24,98.2,98.2,0,0,1,24.12-6.56,80.63,80.63,0,0,1,6.3-22.66c.71-1.61,1.5-3.26,2.38-4.92a80.66,80.66,0,0,1,14.81-19.91,70.65,70.65,0,0,1,26,33.7A69.7,69.7,0,0,1,476,187.66c9.16,7.78,35,31.83,43.91,72.51C530.78,309.76,508.58,348.51,502.59,358.21Z"/><path class="cls-2" d="M466.52,368.5c-3.08-22.6-13.69-42.87-30.49-56.42-19.69-15.88-42.7-18.35-57.38-18a67.45,67.45,0,0,0-18.1-18.71,173.39,173.39,0,0,1,23.06,1.11c11.67,1.41,45.7,5.52,64.85,24C466.79,318.21,468.67,346.36,466.52,368.5Z"/><path class="cls-1" d="M378.65,294.11c5.25,8.34,7.54,17,6.49,24.78-3.3,24.24-39.06,37.16-40.85,37.79"/><path class="cls-3" d="M326.5,232.77a49.38,49.38,0,0,1-7,20.56,68.79,68.79,0,0,1-22.67-18.18C309.14,236.33,318.89,235,326.5,232.77Z"/><path class="cls-1" d="M319.47,253.33h0c1.64.8,3.36,1.55,5.16,2.23,10.08,3.82,18.93,4.12,35.75,3.58,31.13-1,40.08-3.27,50.55-3.32,25.21-.14,67.21,12.47,82.21,48.25,13.33,31.79.17,69.5-21.4,88.77l0,0a65.78,65.78,0,0,1-11.49,8.22"/><path class="cls-2" d="M385.32,224.25c-1.45-2.55,2-7.32,3.4-9.19a22.37,22.37,0,0,1,6.3-5.79,83.32,83.32,0,0,1,23.83,4.26,41.77,41.77,0,0,1-17,10.55C397.06,225.58,387.24,227.66,385.32,224.25Z"/><path class="cls-1" d="M398.82,176.35a69.88,69.88,0,0,1,5.39-39.93,58,58,0,0,1,12.94,3.75,57.37,57.37,0,0,1,12.09,7"/><line class="cls-1" x1="466.52" y1="368.51" x2="466.52" y2="368.5"/><line class="cls-1" x1="319.47" y1="253.34" x2="319.47" y2="253.33"/><path class="cls-4" d="M355.49,414.35h-3.82a.89.89,0,0,1-.88-.88V375a.87.87,0,0,0-.88-.88H339.27a.88.88,0,0,1-.88-.88v-3.32a.88.88,0,0,1,.88-.88h28.62a.87.87,0,0,1,.88.88v3.32a.87.87,0,0,1-.88.88H357.25a.88.88,0,0,0-.88.88v38.48A.88.88,0,0,1,355.49,414.35Z"/><path class="cls-4" d="M392.78,414.35h-4a.8.8,0,0,1-.8-.8V374.91a.79.79,0,0,0-.79-.8H376.39a.8.8,0,0,1-.8-.8v-3.49a.79.79,0,0,1,.8-.79h28.79a.79.79,0,0,1,.79.79v3.49a.79.79,0,0,1-.79.8H394.37a.8.8,0,0,0-.8.8v38.64A.79.79,0,0,1,392.78,414.35Z"/><path class="cls-4" d="M418.43,411.5q-3.58-3.48-3.59-9.55V381.49q0-6.08,3.59-9.55t9.8-3.47q6.07,0,9.67,3.5a12.29,12.29,0,0,1,3.57,8.58.91.91,0,0,1-.91.94h-3.75a.91.91,0,0,1-.92-.83,7.78,7.78,0,0,0-2-5.12,7.45,7.45,0,0,0-5.67-2.11,7.69,7.69,0,0,0-5.74,2.11,8,8,0,0,0-2.07,5.89V402a8.2,8.2,0,0,0,2,5.95,7.67,7.67,0,0,0,5.77,2.11,7.45,7.45,0,0,0,5.67-2.11,7.78,7.78,0,0,0,2-5.12.91.91,0,0,1,.92-.83h3.75a.9.9,0,0,1,.91.93,12.31,12.31,0,0,1-3.57,8.59q-3.6,3.5-9.67,3.5T418.43,411.5Z"/></svg>