<svg xmlns="http://www.w3.org/2000/svg" viewBox="0 0 231.08 295.17"><defs><style>.cls-1{fill:none;}.cls-1,.cls-2,.cls-3{stroke:#231f20;stroke-linecap:round;stroke-linejoin:round;stroke-width:5px;}.cls-2{fill:#a7a9ac;}.cls-3{fill:#bcbec0;}.cls-4{fill:#231f20;}</style></defs><title>Asset 2</title><g id="Layer_2" data-name="Layer 2"><g id="Layer_2-2" data-name="Layer 2"><path class="cls-1" d="M208.29,238.41a135,135,0,0,1-30.85,34.64l0,0a138.66,138.66,0,0,1-11.49,8.22,178.86,178.86,0,0,0,6.31-32.59h0c2.15-22.14.27-50.29-18.06-68-19.15-18.48-53.18-22.59-64.85-24a173.39,173.39,0,0,0-23.06-1.11c-11.72.08-20.45.39-31.58-5-16.8-8.17-26.51-23.3-32.17-35.23a68.79,68.79,0,0,0,22.67,18.18,49.38,49.38,0,0,0,7-20.56,59.55,59.55,0,0,0,10.64-4.26C64.09,97.71,67,80,89.31,64.79a86.27,86.27,0,0,1,15.2-8.24A98.2,98.2,0,0,1,128.63,50a80.63,80.63,0,0,1,6.3-22.66c.71-1.61,1.5-3.26,2.38-4.92A80.66,80.66,0,0,1,152.12,2.5a70.65,70.65,0,0,1,26,33.7,69.7,69.7,0,0,1,3.58,31.66c9.16,7.78,35,31.83,43.91,72.51C236.48,190,214.28,228.71,208.29,238.41Z"/><path class="cls-2" d="M172.22,248.7c-3.08-22.6-13.69-42.87-30.49-56.42C122,176.4,99,173.93,84.35,174.31a67.45,67.45,0,0,0-18.1-18.71,173.39,173.39,0,0,1,23.06,1.11c11.67,1.41,45.7,5.52,64.85,24C172.49,198.41,174.37,226.56,172.22,248.7Z"/><path class="cls-1" d="M84.35,174.31c5.25,8.34,7.54,17,6.49,24.78-3.3,24.24-39.06,37.16-40.85,37.79"/><path class="cls-3" d="M32.2,113a49.38,49.38,0,0,1-7,20.56A68.79,68.79,0,0,1,2.5,115.35C14.84,116.53,24.59,115.22,32.2,113Z"/><path class="cls-1" d="M25.17,133.53h0c1.64.8,3.36,1.55,5.16,2.23,10.08,3.82,18.93,4.12,35.75,3.58,31.13-1,40.08-3.27,50.55-3.32,25.21-.14,67.21,12.47,82.21,48.25,13.33,31.79.17,69.5-21.4,88.77l0,0a65.78,65.78,0,0,1-11.49,8.22"/><path class="cls-2" d="M91,104.45c-1.44-2.55,2-7.32,3.41-9.19a22.35,22.35,0,0,1,6.29-5.79,83.17,83.17,0,0,1,23.83,4.26,41.71,41.71,0,0,1-17,10.55C102.76,105.78,92.94,107.86,91,104.45Z"/><path class="cls-1" d="M104.51,56.55a69.88,69.88,0,0,1,5.39-39.93,58,58,0,0,1,12.94,3.75,57.37,57.37,0,0,1,12.09,7"/><line class="cls-1" x1="172.22" y1="248.71" x2="172.22" y2="248.7"/><line class="cls-1" x1="25.17" y1="133.54" x2="25.17" y2="133.53"/><path class="cls-4" d="M61.19,294.55H57.37a.88.88,0,0,1-.88-.88V255.19a.88.88,0,0,0-.88-.88H45a.87.87,0,0,1-.88-.88v-3.32a.87.87,0,0,1,.88-.88H73.59a.88.88,0,0,1,.88.88v3.32a.88.88,0,0,1-.88.88H63a.87.87,0,0,0-.88.88v38.48A.89.89,0,0,1,61.19,294.55Z"/><path class="cls-4" d="M98.47,294.55h-4a.79.79,0,0,1-.79-.8V255.11a.8.8,0,0,0-.8-.8H82.08a.79.79,0,0,1-.79-.8V250a.79.79,0,0,1,.79-.79h28.79a.79.79,0,0,1,.8.79v3.49a.8.8,0,0,1-.8.8H100.06a.79.79,0,0,0-.79.8v38.64A.8.8,0,0,1,98.47,294.55Z"/><path class="cls-4" d="M124.13,291.7q-3.6-3.48-3.6-9.55V261.69q0-6.08,3.6-9.55t9.79-3.47q6.08,0,9.68,3.5a12.37,12.37,0,0,1,3.57,8.58.91.91,0,0,1-.91.94H142.5a.91.91,0,0,1-.91-.83,7.88,7.88,0,0,0-2-5.12,7.48,7.48,0,0,0-5.68-2.11,7.65,7.65,0,0,0-5.73,2.11,8,8,0,0,0-2.08,5.89v20.52a8.16,8.16,0,0,0,2,6,7.63,7.63,0,0,0,5.76,2.11,7.48,7.48,0,0,0,5.68-2.11,7.88,7.88,0,0,0,2-5.12.91.91,0,0,1,.91-.83h3.76a.91.91,0,0,1,.91.93,12.4,12.4,0,0,1-3.57,8.59q-3.6,3.49-9.68,3.5T124.13,291.7Z"/></g></g></svg>